<?xml version="1.0" encoding="UTF-8" standalone="no"?>
<!-- Created with Inkscape (http://www.inkscape.org/) -->

<svg
   xmlns:dc="http://purl.org/dc/elements/1.1/"
   xmlns:cc="http://creativecommons.org/ns#"
   xmlns:rdf="http://www.w3.org/1999/02/22-rdf-syntax-ns#"
   xmlns:svg="http://www.w3.org/2000/svg"
   xmlns="http://www.w3.org/2000/svg"
   xmlns:sodipodi="http://sodipodi.sourceforge.net/DTD/sodipodi-0.dtd"
   xmlns:inkscape="http://www.inkscape.org/namespaces/inkscape"
   width="22"
   height="22"
   id="svg4628"
   version="1.1"
   inkscape:version="0.48.4 r9939"
   sodipodi:docname="New document 16">
  <defs
     id="defs4630" />
  <sodipodi:namedview
     id="base"
     pagecolor="#ffffff"
     bordercolor="#666666"
     borderopacity="1.0"
     inkscape:pageopacity="0.0"
     inkscape:pageshadow="2"
     inkscape:zoom="10.727273"
     inkscape:cx="11"
     inkscape:cy="11"
     inkscape:document-units="px"
     inkscape:current-layer="layer1"
     showgrid="false"
     inkscape:showpageshadow="false"
     showborder="true"
     inkscape:window-width="639"
     inkscape:window-height="383"
     inkscape:window-x="1039"
     inkscape:window-y="606"
     inkscape:window-maximized="0" />
  <metadata
     id="metadata4633">
    <rdf:RDF>
      <cc:Work
         rdf:about="">
        <dc:format>image/svg+xml</dc:format>
        <dc:type
           rdf:resource="http://purl.org/dc/dcmitype/StillImage" />
        <dc:title></dc:title>
      </cc:Work>
    </rdf:RDF>
  </metadata>
  <g
     inkscape:label="Layer 1"
     inkscape:groupmode="layer"
     id="layer1"
     transform="translate(0,-1030.3622)">
    <g
       transform="translate(-0.28225645,-0.207)"
       id="g3090">
      <path
         inkscape:connector-curvature="0"
         d="m 7.8592922,1045.1405 c -0.167546,0 -0.341294,-0.012 -0.521247,-0.037 -0.17375,-0.019 -0.341293,-0.047 -0.50263,-0.084 -0.155134,-0.031 -0.297856,-0.065 -0.428166,-0.1024 -0.130312,-0.043 -0.229597,-0.084 -0.297855,-0.121 l 0.223391,-0.9587 c 0.130311,0.062 0.319573,0.1334 0.567786,0.214 0.248211,0.074 0.555374,0.1117 0.921489,0.1117 0.490217,0 0.843919,-0.093 1.061108,-0.2792 0.217183,-0.1924 0.325775,-0.4468 0.325779,-0.7633 -4e-6,-0.2047 -0.04344,-0.3754 -0.130312,-0.5119 -0.08067,-0.1365 -0.19547,-0.2451 -0.344394,-0.3258 -0.142726,-0.087 -0.310269,-0.1458 -0.502631,-0.1768 -0.186161,-0.037 -0.384731,-0.056 -0.59571,-0.056 l -0.381626,0 0,-0.9122 0.465398,0 c 0.14272,10e-5 0.285442,-0.012 0.428167,-0.037 0.148924,-0.031 0.282339,-0.081 0.400242,-0.1489 0.117898,-0.074 0.21408,-0.1707 0.288547,-0.2886 0.07446,-0.1179 0.111693,-0.2699 0.111696,-0.456 -3e-6,-0.149 -0.02793,-0.2762 -0.08377,-0.3817 -0.05585,-0.1055 -0.130315,-0.1923 -0.223391,-0.2606 -0.08688,-0.068 -0.189265,-0.1179 -0.307163,-0.1489 -0.117904,-0.031 -0.24201,-0.047 -0.372319,-0.047 -0.279241,0 -0.527453,0.043 -0.744637,0.1303 -0.217188,0.081 -0.409552,0.1738 -0.577094,0.2793 l -0.409551,-0.8377 c 0.08687,-0.056 0.192364,-0.1148 0.316471,-0.1769 0.124105,-0.062 0.260622,-0.121 0.409551,-0.1768 0.155131,-0.056 0.319571,-0.099 0.493322,-0.1303 0.173747,-0.037 0.356803,-0.056 0.54917,-0.056 0.359905,0 0.67017,0.043 0.930797,0.1303 0.260619,0.087 0.474702,0.211 0.642249,0.3723 0.173745,0.1552 0.3009537,0.3413 0.3816267,0.5585 0.08687,0.211 0.1303071,0.4437 0.1303121,0.6981 -5e-6,0.2979 -0.08378,0.5647 -0.2513158,0.8005 -0.161342,0.2358 -0.372322,0.4158 -0.632941,0.5399 0.335083,0.1179 0.611219,0.3133 0.8284088,0.5864 0.223386,0.273 0.335082,0.6236 0.335087,1.0518 -5e-6,0.2854 -0.04965,0.5522 -0.148928,0.8004 -0.09929,0.2421 -0.2513191,0.453 -0.4560898,0.633 -0.20478,0.1737 -0.465402,0.3134 -0.78187,0.4188 -0.310268,0.099 -0.682586,0.149 -1.116956,0.149"
         style="font-size:9.30796719px;font-style:normal;font-variant:normal;font-weight:500;font-stretch:normal;text-align:start;line-height:100%;letter-spacing:0px;word-spacing:0px;writing-mode:lr-tb;text-anchor:start;fill:#000000;fill-opacity:0.36529685;stroke:none;font-family:Ubuntu;-inkscape-font-specification:Ubuntu Medium"
         id="path3113-1" />
      <path
         inkscape:connector-curvature="0"
         d="m 14.741224,1039.4347 c -0.663971,0 -1.172806,0.2079 -1.526506,0.6236 -0.3475,0.4096 -0.521248,0.9805 -0.521246,1.7127 -2e-6,0.3475 0.04033,0.6671 0.121003,0.9587 0.08687,0.2855 0.210979,0.5306 0.372319,0.7353 0.167541,0.2048 0.372316,0.3662 0.614326,0.4841 0.248209,0.1117 0.536756,0.1675 0.865641,0.1675 0.204771,0 0.381622,-0.01 0.530554,-0.019 0.148923,-0.019 0.266824,-0.04 0.353703,-0.065 l 0,-2.3177 1.172803,0 0,3.0996 c -0.161343,0.062 -0.434377,0.1303 -0.819101,0.2048 -0.384734,0.074 -0.828413,0.1117 -1.331039,0.1117 -0.465401,0 -0.890465,-0.075 -1.275191,-0.2234 -0.384732,-0.149 -0.713613,-0.3661 -0.986645,-0.6516 -0.266829,-0.2854 -0.474707,-0.636 -0.623634,-1.0518 -0.148928,-0.4157 -0.223392,-0.8935 -0.223391,-1.4334 -10e-7,-0.5399 0.08067,-1.0177 0.242007,-1.4334 0.167543,-0.4158 0.394036,-0.7664 0.679482,-1.0518 0.285442,-0.2917 0.620529,-0.512 1.00526,-0.6609 0.384727,-0.1489 0.794277,-0.2234 1.228652,-0.2234 0.297851,0 0.561576,0.022 0.791177,0.065 0.235797,0.037 0.43747,0.081 0.605018,0.1303 0.167538,0.05 0.304055,0.1024 0.40955,0.1582 0.111691,0.056 0.189257,0.096 0.2327,0.121 l -0.353703,0.9587 c -0.186165,-0.1117 -0.418864,-0.2047 -0.698098,-0.2792 -0.273038,-0.081 -0.561584,-0.121 -0.865641,-0.121"
         style="font-size:9.30796719px;font-style:normal;font-variant:normal;font-weight:500;font-stretch:normal;text-align:start;line-height:100%;letter-spacing:0px;word-spacing:0px;writing-mode:lr-tb;text-anchor:start;fill:#000000;fill-opacity:0.36529685;stroke:none;font-family:Ubuntu;-inkscape-font-specification:Ubuntu Medium"
         id="path3115-8" />
      <path
         inkscape:connector-curvature="0"
         d="m 7.5905897,1044.7373 c -0.1675454,0 -0.341294,-0.012 -0.5212462,-0.037 -0.1737502,-0.019 -0.3412934,-0.047 -0.5026302,-0.084 -0.1551338,-0.031 -0.2978558,-0.065 -0.4281665,-0.1024 -0.1303121,-0.043 -0.229597,-0.084 -0.2978549,-0.121 l 0.2233912,-0.9587 c 0.1303107,0.062 0.3195725,0.1334 0.567786,0.214 0.248211,0.074 0.5553736,0.1117 0.9214887,0.1117 0.490217,0 0.8439194,-0.093 1.0611083,-0.2792 0.2171825,-0.1924 0.3257753,-0.4468 0.3257789,-0.7633 -3.6e-6,-0.2047 -0.043441,-0.3754 -0.1303116,-0.5119 -0.080672,-0.1365 -0.1954705,-0.2451 -0.3443948,-0.3258 -0.1427251,-0.087 -0.3102683,-0.1458 -0.5026302,-0.1768 -0.1861617,-0.037 -0.3847315,-0.056 -0.5957099,-0.056 l -0.3816267,0 0,-0.9122 0.4653984,0 c 0.14272,10e-5 0.285442,-0.012 0.4281665,-0.037 0.1489248,-0.031 0.2823389,-0.081 0.4002426,-0.1489 0.1178979,-0.074 0.2140801,-0.1707 0.288547,-0.2886 0.074461,-0.1179 0.1116923,-0.2699 0.1116956,-0.456 -3.3e-6,-0.149 -0.027927,-0.2762 -0.083772,-0.3817 -0.055851,-0.1055 -0.1303146,-0.1923 -0.2233912,-0.2606 -0.086877,-0.068 -0.1892648,-0.1179 -0.307163,-0.1489 -0.1179034,-0.031 -0.2420095,-0.047 -0.3723187,-0.047 -0.279241,0 -0.5274532,0.043 -0.7446373,0.1303 -0.2171873,0.081 -0.4095517,0.1738 -0.577094,0.2793 l -0.4095505,-0.8377 c 0.086874,-0.056 0.1923638,-0.1148 0.3164708,-0.1769 0.1241053,-0.062 0.260622,-0.121 0.4095506,-0.1768 0.1551313,-0.056 0.3195719,-0.099 0.4933223,-0.1303 0.1737467,-0.037 0.3568032,-0.056 0.54917,-0.056 0.3599054,0 0.6701706,0.043 0.9307967,0.1303 0.2606196,0.087 0.4747026,0.211 0.6422498,0.3723 0.1737446,0.1552 0.3009534,0.3413 0.3816266,0.5585 0.08687,0.211 0.1303071,0.4437 0.1303116,0.6981 -4.5e-6,0.2979 -0.083776,0.5647 -0.2513151,0.8005 -0.1613422,0.2358 -0.3723225,0.4158 -0.6329418,0.5399 0.3350829,0.1179 0.611219,0.3133 0.8284091,0.5864 0.2233866,0.273 0.3350822,0.6236 0.3350872,1.0518 -5e-6,0.2854 -0.04965,0.5522 -0.1489279,0.8004 -0.099289,0.2421 -0.2513194,0.453 -0.4560904,0.633 -0.2047792,0.1737 -0.465402,0.3134 -0.7818692,0.4188 -0.3102686,0.099 -0.6825869,0.149 -1.1169561,0.149"
         style="font-size:9.30796719px;font-style:normal;font-variant:normal;font-weight:500;font-stretch:normal;text-align:start;line-height:100%;letter-spacing:0px;word-spacing:0px;writing-mode:lr-tb;text-anchor:start;fill:#dfdbd3;fill-opacity:1;stroke:none;font-family:Ubuntu;-inkscape-font-specification:Ubuntu Medium"
         id="path3113" />
      <path
         inkscape:connector-curvature="0"
         d="m 14.472522,1039.0315 c -0.663971,0 -1.172806,0.2079 -1.526506,0.6236 -0.3475,0.4096 -0.521248,0.9805 -0.521246,1.7127 -2e-6,0.3475 0.04033,0.6671 0.121003,0.9587 0.08687,0.2855 0.210979,0.5306 0.372319,0.7353 0.167541,0.2048 0.372316,0.3662 0.614326,0.4841 0.248209,0.1117 0.536756,0.1675 0.865641,0.1675 0.204771,0 0.381622,-0.01 0.530554,-0.019 0.148923,-0.019 0.266824,-0.04 0.353703,-0.065 l 0,-2.3177 1.172803,0 0,3.0996 c -0.161343,0.062 -0.434377,0.1303 -0.819101,0.2048 -0.384734,0.074 -0.828413,0.1117 -1.331039,0.1117 -0.465401,0 -0.890465,-0.075 -1.275191,-0.2234 -0.384732,-0.149 -0.713613,-0.3661 -0.986645,-0.6516 -0.266829,-0.2854 -0.474707,-0.636 -0.623634,-1.0518 -0.148928,-0.4157 -0.223392,-0.8935 -0.223391,-1.4334 -1e-6,-0.5399 0.08067,-1.0177 0.242007,-1.4334 0.167543,-0.4158 0.394036,-0.7664 0.679482,-1.0518 0.285442,-0.2917 0.620529,-0.512 1.00526,-0.6609 0.384727,-0.1489 0.794277,-0.2234 1.228652,-0.2234 0.297851,0 0.561576,0.022 0.791177,0.065 0.235797,0.037 0.43747,0.081 0.605018,0.1303 0.167538,0.05 0.304055,0.1024 0.40955,0.1582 0.111691,0.056 0.189257,0.096 0.2327,0.121 l -0.353703,0.9587 c -0.186165,-0.1117 -0.418864,-0.2047 -0.698098,-0.2792 -0.273038,-0.081 -0.561584,-0.121 -0.865641,-0.121"
         style="font-size:9.30796719px;font-style:normal;font-variant:normal;font-weight:500;font-stretch:normal;text-align:start;line-height:100%;letter-spacing:0px;word-spacing:0px;writing-mode:lr-tb;text-anchor:start;fill:#dfdbd3;fill-opacity:1;stroke:none;font-family:Ubuntu;-inkscape-font-specification:Ubuntu Medium"
         id="path3115" />
    </g>
  </g>
</svg>
