<?xml version="1.0" encoding="UTF-8" standalone="no"?>
<!-- Created with Inkscape (http://www.inkscape.org/) -->

<svg
   xmlns:dc="http://purl.org/dc/elements/1.1/"
   xmlns:cc="http://creativecommons.org/ns#"
   xmlns:rdf="http://www.w3.org/1999/02/22-rdf-syntax-ns#"
   xmlns:svg="http://www.w3.org/2000/svg"
   xmlns="http://www.w3.org/2000/svg"
   xmlns:sodipodi="http://sodipodi.sourceforge.net/DTD/sodipodi-0.dtd"
   xmlns:inkscape="http://www.inkscape.org/namespaces/inkscape"
   width="22"
   height="22"
   id="svg4628"
   version="1.1"
   inkscape:version="0.48.4 r9939"
   sodipodi:docname="New document 22">
  <defs
     id="defs4630" />
  <sodipodi:namedview
     id="base"
     pagecolor="#ffffff"
     bordercolor="#666666"
     borderopacity="1.0"
     inkscape:pageopacity="0.0"
     inkscape:pageshadow="2"
     inkscape:zoom="10.727273"
     inkscape:cx="11"
     inkscape:cy="11"
     inkscape:document-units="px"
     inkscape:current-layer="layer1"
     showgrid="false"
     inkscape:showpageshadow="false"
     showborder="true"
     inkscape:window-width="639"
     inkscape:window-height="383"
     inkscape:window-x="1032"
     inkscape:window-y="356"
     inkscape:window-maximized="0" />
  <metadata
     id="metadata4633">
    <rdf:RDF>
      <cc:Work
         rdf:about="">
        <dc:format>image/svg+xml</dc:format>
        <dc:type
           rdf:resource="http://purl.org/dc/dcmitype/StillImage" />
        <dc:title></dc:title>
      </cc:Work>
    </rdf:RDF>
  </metadata>
  <g
     inkscape:label="Layer 1"
     inkscape:groupmode="layer"
     id="layer1"
     transform="translate(0,-1030.3622)">
    <g
       transform="translate(22.066898,-22.5806)"
       id="g3104">
      <path
         inkscape:connector-curvature="0"
         d="m -5.0400688,1066.3507 c -1.3e-5,0.045 -0.02249,0.1206 -0.06745,0.2269 -0.04089,0.1063 -0.07768,0.1656 -0.110369,0.1778 -0.05315,0.02 -0.128776,0.031 -0.22687,0.031 -0.01636,0 -0.04089,0 -0.07358,-0.012 -0.02863,-0.01 -0.05111,-0.012 -0.06745,-0.012 -0.04089,0 -0.09199,0.041 -0.15329,0.1226 -0.05724,0.086 -0.08585,0.1512 -0.08584,0.1962 -1.2e-5,0.024 0.03065,0.09 0.09197,0.1962 -0.01636,0.02 -0.04702,0.031 -0.09197,0.031 -0.122644,0 -0.24732,-0.088 -0.374028,-0.2637 -0.06133,0.061 -0.106293,0.1492 -0.134896,0.2637 -0.220748,-0.1268 -0.335205,-0.2535 -0.34337,-0.3802 -0.07359,0.1063 -0.13695,0.186 -0.1900798,0.2391 -0.065412,-0.029 -0.1410353,-0.1001 -0.2268675,-0.2146 -0.081765,-0.1144 -0.1226423,-0.2064 -0.1226322,-0.2759 -1.01e-5,0.053 0.057218,-0.1206 0.171685,-0.5212 -0.024537,-0.01 -0.047019,-0.012 -0.067448,-0.012 -0.020449,0 -0.051107,0 -0.091974,0.01 -0.040888,0.01 -0.071546,0.012 -0.091974,0.012 -0.1185543,0 -0.2514057,-0.053 -0.3985546,-0.1595 -0.1471681,-0.1022 -0.2187035,-0.1533 -0.2146064,-0.1533 0.053131,0 -0.036799,0.039 -0.2697908,0.1165 -0.2943261,0.098 -0.6336082,0.1472 -1.0178472,0.1472 -0.7071866,0 -1.6678047,-0.1288 -2.8818567,-0.3863 -0.367902,-0.078 -0.564113,-0.1165 -0.588635,-0.1165 -0.02044,0 -0.0695,0.039 -0.147159,0.1165 -0.298409,0.2984 -0.476225,0.7195 -0.53345,1.2631 -0.05314,0.07 -0.128767,0.1043 -0.226869,0.1043 -0.04497,0 -0.108329,-0.012 -0.19008,-0.037 -0.08176,-0.021 -0.145118,-0.031 -0.19008,-0.031 -0.102197,0 -0.206434,0.072 -0.312712,0.2146 -0.159425,0.2126 -0.243224,0.323 -0.251396,0.3311 -0.02453,-0.049 -0.07358,-0.2309 -0.147159,-0.5457 -0.06541,0.061 -0.118547,0.1247 -0.159422,0.1901 -0.06541,-0.029 -0.100152,-0.086 -0.104237,-0.1717 -2e-6,-0.07 -2e-6,-0.141 0,-0.2146 -0.04905,0.024 -0.102196,0.063 -0.159422,0.1165 l -0.08584,0 c -0.01635,-0.07 -0.02453,-0.1083 -0.02453,-0.1165 -2e-6,-0.1308 0.04087,-0.2861 0.122632,-0.466 0.04905,-0.1104 0.15942,-0.2126 0.331107,-0.3066 0.151244,-0.082 0.296358,-0.1287 0.435345,-0.141 0.01635,-0.086 0.04087,-0.2085 0.07358,-0.3679 0.07766,-0.3761 0.185989,-0.6602 0.324975,-0.8523 -0.07358,-0.057 -0.200302,-0.086 -0.38016,-0.086 -0.06949,0 -0.171688,0.01 -0.30658,0.024 -0.13081,0.012 -0.23096,0.018 -0.300449,0.018 -0.494619,0 -0.958577,-0.2228 -1.391875,-0.6684 -0.08176,-0.082 -0.192125,-0.2677 -0.331107,-0.5579 -0.134896,-0.2903 -0.202344,-0.4865 -0.202344,-0.5887 0,-0.1839 0.04905,-0.3331 0.147159,-0.4476 0.06949,-0.045 0.161465,-0.1247 0.275923,-0.2391 0.04088,-0.07 0.08175,-0.139 0.122632,-0.2085 0.03679,-0.041 0.116499,-0.061 0.239133,-0.061 0.08584,0 0.155332,0.023 0.208474,0.067 0.08584,0.069 0.14307,0.1104 0.171685,0.1227 0.06132,0.01 0.155333,0.02 0.282054,0.037 0.179859,0.053 0.447606,0.1308 0.803241,0.233 -2e-6,-0.037 -0.0082,-0.09 -0.02453,-0.1595 -0.01635,-0.069 -0.02453,-0.1226 -0.02453,-0.1594 -2e-6,-0.086 0.04087,-0.1901 0.122633,-0.3127 0.08175,-0.1267 0.161462,-0.2085 0.239132,-0.2453 0.106278,-0.012 0.259569,-0.035 0.459871,-0.067 0.290226,-0.078 0.727614,-0.188 1.312165,-0.3311 0.232996,-0.065 0.584541,-0.1492 1.054637,-0.2514 0.40468,-0.069 0.870681,-0.1042 1.398007,-0.1042 0.8747683,0 1.7658947,0.2432 2.673382,0.7296 0.044955,0.041 0.1164905,0.1002 0.2146064,0.1778 0.5763608,0.4293 0.9074668,0.9566 0.9933208,1.582 0.314744,0.1594 0.508912,0.2391 0.582503,0.2391 -0.04089,0 0.118532,-0.041 0.478265,-0.1226 0.03678,0.029 0.05517,0.065 0.05518,0.1104 -1.2e-5,0.1716 -0.0695,0.3209 -0.208474,0.4476 -0.134908,0.1226 -0.292285,0.1839 -0.472134,0.1839 -0.06541,0 -0.159434,-0.022 -0.282054,-0.067 -0.118551,-0.049 -0.208481,-0.074 -0.269786,-0.074 -0.02045,0 -0.0368,0.023 -0.04905,0.067 -0.01227,0.045 -0.03271,0.1145 -0.06132,0.2085 -0.02454,0.09 -0.09403,0.2575 -0.208475,0.5028 l 0,0.061 c 0.01225,0.029 0.03269,0.043 0.06132,0.043 0.01634,0 0.07152,-0.035 0.165554,-0.1042 0.09401,-0.074 0.173717,-0.1104 0.239132,-0.1104 -0.04089,0 0.03065,0.037 0.214607,0.1104 0.143059,0.045 0.284086,0.088 0.423081,0.1288 0.204375,0.078 0.306568,0.1614 0.30658,0.2514 -1.2e-5,0.024 -0.0225,0.086 -0.06745,0.1839 -0.04089,0.094 -0.06133,0.1799 -0.06132,0.2575 -1.2e-5,0.1022 0.04495,0.2371 0.134896,0.4047 0.08992,0.1717 0.134883,0.3148 0.134895,0.4292 m -1.557426,-3.5747 c -0.2411868,-0.5069 -0.4844071,-0.8196 -0.7296612,-0.9381 0.061306,0.2044 0.1226221,0.4067 0.1839483,0.607 0.061306,0.1104 0.2432101,0.2207 0.5457129,0.3311 m 1.336691,0.7113 c -0.138995,0.078 -0.243232,0.1165 -0.312712,0.1165 -0.03271,0 -0.235056,-0.047 -0.607029,-0.141 -0.01227,0.057 -0.0368,0.143 -0.07358,0.2575 0.228902,0.082 0.414894,0.1226 0.557976,0.1226 0.08992,0 0.181893,-0.037 0.275923,-0.1104 0.09809,-0.078 0.151234,-0.1594 0.159422,-0.2452 m -2.0540887,-1.0608 c -0.044975,-0.1676 -0.1267298,-0.4006 -0.2452644,-0.699 -0.3311164,-0.1676 -0.6847055,-0.3311 -1.0607685,-0.4905 l 0,0.1533 c -8.7e-6,0.1185 0.018386,0.2411 0.055184,0.3679 0.2779573,0.1512 0.6949063,0.374 1.2508484,0.6683 m 0.8890832,0.6561 c -0.220748,-0.1186 -0.4496616,-0.231 -0.6867401,-0.3372 l -0.2943172,0.8461 0.030658,0.055 0.8032413,0.2391 c 0.0082,-0.024 0.05722,-0.2922 0.147158,-0.8032 m -0.8584251,-0.4783 -1.2140588,-0.6254 c 0.012254,0.1267 0.024518,0.2534 0.03679,0.3802 0.012254,0.1512 0.049044,0.2698 0.1103689,0.3556 0.077658,0.1104 0.2125533,0.235 0.4046863,0.374 0.2820444,0.1962 0.4353345,0.3046 0.4598707,0.325 l 0.2023432,-0.8094 m -1.4409284,-0.8952 0,-0.515 c -0.535502,-0.098 -0.7909855,-0.1472 -0.7664512,-0.1472 l -0.2391328,0 c 0.012256,0.1349 0.010212,0.2596 -0.00613,0.374 l 1.0117141,0.2882 m 0.1716851,0.84 c -8.8e-6,-0.069 -0.040886,-0.28 -0.1226322,-0.6315 -0.3311152,-0.1267 -0.6785728,-0.2412 -1.0423737,-0.3434 0.00817,0.2412 0.063352,0.5805 0.1655535,1.0179 0.053133,0.1022 0.1451068,0.2064 0.2759224,0.3127 0.2043788,0.1635 0.3147476,0.2534 0.331107,0.2698 0.2616067,-0.417 0.3924142,-0.6255 0.392423,-0.6255 m -1.3182941,-1.1404 0,-0.3373 c -0.2697981,-0.01 -0.4128691,-0.012 -0.4292131,-0.012 l -0.312712,0 c 0.04496,0 -0.03271,0 -0.233001,0.012 -0.02862,0.1186 -0.05315,0.231 -0.07358,0.3373 l 1.0485051,0 m 2.3238781,2.2073 c -9.7e-6,-0.033 -0.3086338,-0.3086 -0.9258731,-0.8277 -0.228922,0.3188 -0.3433786,0.4782 -0.3433701,0.4782 l 0.1226322,1.0547 0.7357932,0 c 0.2738689,-0.4415 0.4108081,-0.6765 0.4108178,-0.7052 m 0.9074782,0.4722 c -0.5273285,-0.1962 -0.8114262,-0.2943 -0.8522937,-0.2943 l -0.392423,0.5825 0.2943173,0.9013 c 0.4046761,-0.1553 0.7214756,-0.5518 0.9503994,-1.1895 m 1.29377,2.422 0,-0.2208 c -1.2e-5,-0.01 -0.05315,-0.094 -0.159422,-0.2575 -0.106293,-0.1635 -0.159434,-0.3168 -0.159422,-0.4599 -1.2e-5,-0.037 0.02247,-0.1962 0.06745,-0.4782 -0.05724,-0.053 -0.153302,-0.092 -0.288186,-0.1165 -0.134906,-0.029 -0.222793,-0.063 -0.263659,-0.1043 -0.102204,0.1431 -0.261626,0.2146 -0.478265,0.2146 -0.01636,0 -0.04293,0 -0.07971,-0.012 -0.03271,-0.01 -0.05724,-0.012 -0.07358,-0.012 -0.02045,0 -0.1451256,0.096 -0.3740286,0.2882 -0.2698008,0.2207 -0.4087838,0.3352 -0.4169495,0.3434 0.1185346,0.057 0.2145964,0.086 0.2881857,0.086 0.1553239,0 0.3065701,-0.047 0.4537391,-0.141 0.1512353,-0.098 0.2595603,-0.1472 0.3249753,-0.1472 l 0.01226,0.012 c -0.03271,0.1022 -0.09198,0.2514 -0.177817,0.4476 -0.1716952,0.2984 -0.2575377,0.4762 -0.2575273,0.5334 -1.04e-5,0.033 0.00408,0.078 0.012263,0.1349 0.012253,0.061 0.018384,0.1063 0.018395,0.1349 l 0.085843,0.025 c 0.05722,-0.061 0.149192,-0.1472 0.275922,-0.2576 0.01634,0.086 0.05313,0.2126 0.110369,0.3802 0.05313,-0.094 0.14306,-0.1983 0.269791,-0.3127 0.02452,0.065 0.07561,0.1533 0.15329,0.2636 0.134884,-0.2166 0.298394,-0.3249 0.490529,-0.3249 0.01225,0 0.03065,0 0.05518,0.01 0.0286,0 0.04904,0.01 0.06132,0.01 0.03269,0 0.04904,-0.01 0.04905,-0.031 m -4.3534433,-3.8568 -0.1962097,-1.1037 -1.0485061,0 c 0.08584,0.4292 0.16146,0.7828 0.22687,1.0608 0.183941,0.1103 0.392416,0.2411 0.625424,0.3924 0.08583,-0.078 0.2166431,-0.1942 0.3924218,-0.3495 m -1.2692418,-1.582 c -0.310674,0.049 -0.633606,0.1124 -0.968794,0.1901 -0.01636,0.069 -0.04293,0.1717 -0.07971,0.3066 l 0.950399,-0.098 c 0.02861,-0.1717 0.06131,-0.3046 0.09811,-0.3986 m 2.1154039,2.7163 c -8.5e-6,-0.2371 -0.073588,-0.4312 -0.2207379,-0.5825 -0.1553423,-0.139 -0.3127201,-0.2779 -0.472134,-0.4169 l -0.508922,0.466 0,1.1588 0.5947645,0.3373 c 0.1307997,-0.098 0.3290549,-0.2432 0.5947662,-0.4354 -0.0041,-0.045 -0.00614,-0.082 -0.00613,-0.1103 -8.5e-6,-0.045 0.00204,-0.1145 0.00613,-0.2085 0.00817,-0.094 0.012255,-0.1635 0.012263,-0.2085 m 1.0669001,1.5145 c -9.5e-6,-0.033 -0.08994,-0.2963 -0.2697908,-0.7909 l -0.72353,0 c -0.036798,0 -0.2452727,0.1226 -0.6254242,0.3679 -0.00818,0.049 -0.018403,0.1226 -0.030658,0.2207 -0.00818,0.1267 -0.012271,0.3311 -0.012263,0.6132 -7.9e-6,0.033 0.00612,0.055 0.018395,0.067 l 0.2636592,0 c 0.065396,0 0.275914,-0.039 0.6315558,-0.1165 0.3556243,-0.078 0.5538795,-0.1288 0.5947662,-0.1533 0.102184,-0.065 0.1532807,-0.1349 0.1532902,-0.2085 m -3.1087252,-2.6304 -0.147158,-1.0547 -0.220738,0 c -0.212569,0 -0.463964,0.043 -0.754188,0.1288 0.04496,0.2289 0.118539,0.5743 0.220738,1.0362 0.351539,0.1963 0.535487,0.2944 0.551844,0.2944 0.04905,0 0.120583,-0.055 0.214607,-0.1656 0.0981,-0.1104 0.143064,-0.1901 0.134895,-0.2391 m 0.717399,1.7413 0,-1.2815 c -0.314763,-0.2289 -0.478273,-0.3433 -0.490529,-0.3433 -0.05724,0 -0.151253,0.063 -0.282054,0.1901 -0.130814,0.1226 -0.206437,0.2146 -0.22687,0.2759 -0.04088,0.1226 -0.05928,0.2902 -0.05518,0.5028 0.0041,0.282 0.0041,0.4517 0,0.5089 0.363802,0.2289 0.560013,0.3434 0.588634,0.3434 0.02043,0 0.09605,-0.031 0.22687,-0.092 0.134888,-0.061 0.214599,-0.096 0.239133,-0.1043 m -1.955984,-3.1025 c -0.114462,0.02 -0.480314,0.1022 -1.097558,0.2452 -0.102198,0.1308 -0.206435,0.327 -0.312712,0.5887 0.384243,-0.1186 0.823675,-0.2862 1.318296,-0.5028 0.04496,-0.041 0.07562,-0.1513 0.09197,-0.3311 m 0.208475,1.4961 -0.196212,-1.0669 -1.404138,0.5334 0.68674,0.8523 0.91361,-0.3188 m 2.3177471,2.9677 0,-0.9198 c -7.7e-6,-0.024 -0.089938,-0.084 -0.26979,-0.1778 -0.1757801,-0.094 -0.2841051,-0.141 -0.3249751,-0.141 -0.04906,0 -0.198262,0.065 -0.447607,0.1962 -0.09403,0.3434 -0.183955,0.6418 -0.269791,0.8952 0.290223,0.041 0.72761,0.09 1.3121631,0.1472 m -1.7475081,-2.33 0,-0.1717 c -0.122638,-0.078 -0.30863,-0.1901 -0.557976,-0.3373 l -0.821636,0.2392 0,0.1042 c -4e-6,0.086 0.02657,0.2126 0.07971,0.3802 0.05722,0.1635 0.110364,0.2759 0.159422,0.3372 0.04905,0.061 0.147154,0.1267 0.294317,0.1962 0.147154,0.07 0.255479,0.1043 0.324976,0.1042 0.05314,1e-4 0.130802,-0.01 0.233001,-0.024 0.106275,-0.016 0.185986,-0.024 0.239133,-0.024 0.0327,-0.3761 0.04905,-0.6438 0.04905,-0.8032 m -2.103142,-1.7966 c -0.15125,0.012 -0.380163,0.035 -0.68674,0.067 -0.04497,0.094 -0.100153,0.2351 -0.165553,0.4231 0.167594,-0.041 0.37198,-0.065 0.61316,-0.074 0.08175,-0.1553 0.161462,-0.2943 0.239133,-0.4169 m -0.06745,0.9443 c -0.02862,-0.078 -0.07767,-0.1922 -0.147159,-0.3434 -0.03271,0 -0.09198,-0.014 -0.177817,-0.031 -0.08176,-0.016 -0.145118,-0.025 -0.19008,-0.025 -0.0327,0 -0.08176,0 -0.147158,0.012 -0.06541,0.01 -0.11446,0.012 -0.147159,0.012 0.04496,0.2085 0.110366,0.4395 0.196212,0.6929 0.10219,-0.065 0.306577,-0.1717 0.613161,-0.3188 m 2.697908,2.0908 c -0.327025,-0.1798 -0.529368,-0.2697 -0.607029,-0.2698 -0.04497,10e-5 -0.112419,0.01 -0.202344,0.025 -0.08585,0.012 -0.151251,0.018 -0.196211,0.018 -0.06541,0 -0.108331,-0.012 -0.128764,-0.037 l -0.441476,0.9197 c 0.143066,0.07 0.353584,0.1227 0.631556,0.1594 0.216644,0.029 0.435338,0.057 0.656082,0.086 0.07766,-0.1063 0.138977,-0.2514 0.183949,-0.4354 0.03678,-0.1553 0.07153,-0.3106 0.104237,-0.466 m -2.219643,-1.5206 c -4e-6,0 -0.114461,-0.1635 -0.34337,-0.4905 l -0.711267,0.3617 0.202343,0.8769 c 0.568192,-0.4497 0.85229,-0.699 0.852294,-0.7481 m 0.453739,0.8891 -0.269791,-0.8094 c -0.179864,0.1513 -0.359725,0.3025 -0.539581,0.4538 -0.290233,0.2452 -0.435348,0.3903 -0.435345,0.4353 -3e-6,0.1799 0.155331,0.3618 0.466003,0.5457 l 0.778714,-0.6254 m 0.502792,0.3679 c -0.29841,-0.1472 -0.449656,-0.2208 -0.453739,-0.2208 -0.05314,0 -0.284102,0.2044 -0.692872,0.6132 0.314752,0.327 0.513007,0.4905 0.594766,0.4905 0.03679,0 0.06744,0 0.09197,-0.012 0.102188,-0.1676 0.255478,-0.4579 0.45987,-0.8707 m -1.94372,-0.055 -0.38016,-1.6187 c -0.151249,-0.065 -0.38425,-0.1513 -0.699003,-0.2576 -0.151249,-0.033 -0.37403,-0.094 -0.668346,-0.1839 -0.02862,-0.012 -0.0838,-0.053 -0.165553,-0.1227 -0.05723,-0.045 -0.124678,-0.065 -0.202343,-0.061 -0.02862,0.049 -0.07358,0.1227 -0.134896,0.2208 -0.2003,0.2452 -0.30045,0.3903 -0.300449,0.4353 -1e-6,-0.053 0.03679,0.059 0.110369,0.3372 0.0082,0.057 0.02861,0.139 0.06132,0.2453 0.110368,0.2248 0.228913,0.3904 0.355634,0.4967 0.41286,0.3433 0.817546,0.515 1.214058,0.515 0.05314,0 0.128762,-0.01 0.22687,-0.024 0.102191,-0.02 0.179858,-0.031 0.233001,-0.031 0.110366,0 0.226867,0.016 0.349502,0.049 m 1.10369,1.0117 c -0.04906,-0.02 -0.17169,-0.1165 -0.367897,-0.2882 -0.18804,-0.1594 -0.288189,-0.2391 -0.300449,-0.2391 -0.106285,0 -0.208478,0.1799 -0.30658,0.5396 -0.05314,0.2371 -0.104241,0.4721 -0.15329,0.7051 -0.106285,0 -0.261619,0.018 -0.466003,0.055 -0.175775,0.061 -0.296363,0.2166 -0.361765,0.466 0.0327,-0.012 0.147156,-0.043 0.34337,-0.092 l 0.01226,0.031 0,0.025 c -0.06132,0.078 -0.128767,0.1778 -0.202344,0.3005 0.07766,-0.041 0.157376,-0.088 0.239133,-0.1411 l 0.03679,0.037 c -0.0327,0.2085 -0.04906,0.2964 -0.04905,0.2637 -3e-6,0.024 0.002,0.043 0.0061,0.055 0.02044,-0.01 0.08993,-0.065 0.208474,-0.1717 0.06949,-0.061 0.161463,-0.092 0.275923,-0.092 0.05723,0 0.134892,0.01 0.233001,0.031 0.114453,0.024 0.190076,0.039 0.22687,0.043 0.04496,-0.2003 0.08993,-0.4027 0.134895,-0.607 0.04496,-0.1758 0.147155,-0.3659 0.30658,-0.5703 0.126716,-0.1594 0.188032,-0.2759 0.183949,-0.3495 m -2.005037,-1.9192 c -2e-6,0.07 -0.04497,0.1594 -0.134895,0.2698 -0.08993,0.1104 -0.1676,0.1656 -0.233001,0.1656 -0.138985,0 -0.25753,-0.041 -0.355634,-0.1227 -0.11037,-0.086 -0.165555,-0.1962 -0.165553,-0.3311 -2e-6,-0.1471 0.0511,-0.2677 0.15329,-0.3617 0.10628,-0.094 0.235043,-0.1411 0.386292,-0.1411 0.232998,0 0.349499,0.1738 0.349501,0.5212 m -0.45987,-0.074 0,-0.08 c 0.0041,-0.029 -0.03066,-0.072 -0.104238,-0.1287 -0.02453,0.016 -0.05927,0.043 -0.104237,0.08 0.0082,0.037 0.02453,0.088 0.04905,0.1533 0.03679,-0.01 0.08993,-0.016 0.159422,-0.025 m 0.361765,0.037 c -0.03679,-0.01 -0.08993,-0.018 -0.159422,-0.031 -0.05723,0.1144 -0.122635,0.1941 -0.196212,0.2391 -2e-6,0.069 0.01839,0.1329 0.05518,0.1901 0.106279,-0.053 0.206428,-0.186 0.300449,-0.3986"
         id="path3144-1"
         style="font-size:12.55753708px;font-style:normal;font-variant:normal;font-weight:normal;font-stretch:normal;text-align:start;line-height:100%;letter-spacing:0px;word-spacing:0px;writing-mode:lr-tb;text-anchor:start;fill:#000000;fill-opacity:0.36529685;stroke:none;font-family:Ubuntu;-inkscape-font-specification:Ubuntu" />
      <path
         inkscape:connector-curvature="0"
         d="m -5.3087713,1065.9475 c -1.23e-5,0.045 -0.022495,0.1206 -0.067448,0.2269 -0.04089,0.1063 -0.077679,0.1656 -0.110369,0.1778 -0.053153,0.02 -0.1287758,0.031 -0.2268696,0.031 -0.016363,0 -0.040889,0 -0.073579,-0.012 -0.028626,-0.01 -0.051108,-0.012 -0.067448,-0.012 -0.040889,0 -0.091986,0.041 -0.1532902,0.1226 -0.05724,0.086 -0.085854,0.1512 -0.085843,0.1962 -1.15e-5,0.024 0.030647,0.09 0.091974,0.1962 -0.016363,0.02 -0.047021,0.031 -0.091974,0.031 -0.1226436,0 -0.2473195,-0.088 -0.3740282,-0.2637 -0.061327,0.061 -0.1062923,0.1492 -0.1348954,0.2637 -0.2207487,-0.1268 -0.3352053,-0.2535 -0.3433702,-0.3802 -0.07359,0.1063 -0.1369498,0.186 -0.1900799,0.2391 -0.065414,-0.029 -0.1410373,-0.1001 -0.2268695,-0.2146 -0.081765,-0.1144 -0.1226423,-0.2064 -0.1226322,-0.2759 -1.01e-5,0.053 0.057218,-0.1206 0.171685,-0.5212 -0.024537,-0.01 -0.047019,-0.012 -0.067448,-0.012 -0.020449,0 -0.051107,0 -0.091974,0.01 -0.040888,0.01 -0.071546,0.012 -0.091974,0.012 -0.1185543,0 -0.2514057,-0.053 -0.3985546,-0.1595 -0.1471681,-0.1022 -0.2187035,-0.1533 -0.2146064,-0.1533 0.053131,0 -0.036799,0.039 -0.2697908,0.1165 -0.2943261,0.098 -0.6336082,0.1472 -1.0178472,0.1472 -0.7071865,0 -1.6678045,-0.1288 -2.8818565,-0.3863 -0.367902,-0.078 -0.564113,-0.1165 -0.588635,-0.1165 -0.02044,0 -0.0695,0.039 -0.147159,0.1165 -0.298409,0.2984 -0.476225,0.7195 -0.53345,1.2631 -0.05314,0.07 -0.128767,0.1043 -0.226869,0.1043 -0.04497,0 -0.108329,-0.012 -0.19008,-0.037 -0.08176,-0.021 -0.145118,-0.031 -0.19008,-0.031 -0.102197,0 -0.206434,0.072 -0.312712,0.2146 -0.159425,0.2126 -0.243224,0.323 -0.251396,0.3311 -0.02453,-0.049 -0.07358,-0.2309 -0.147159,-0.5457 -0.06541,0.061 -0.118547,0.1247 -0.159422,0.1901 -0.06541,-0.029 -0.100152,-0.086 -0.104237,-0.1717 -2e-6,-0.07 -2e-6,-0.141 0,-0.2146 -0.04905,0.024 -0.102196,0.063 -0.159422,0.1165 l -0.08584,0 c -0.01635,-0.07 -0.02453,-0.1083 -0.02453,-0.1165 -2e-6,-0.1308 0.04087,-0.2861 0.122632,-0.466 0.04905,-0.1104 0.15942,-0.2126 0.331107,-0.3066 0.151244,-0.082 0.296358,-0.1287 0.435345,-0.141 0.01635,-0.086 0.04087,-0.2085 0.07358,-0.3679 0.07766,-0.3761 0.185989,-0.6602 0.324975,-0.8523 -0.07358,-0.057 -0.200302,-0.086 -0.38016,-0.086 -0.06949,0 -0.171688,0.01 -0.30658,0.024 -0.13081,0.012 -0.23096,0.018 -0.300449,0.018 -0.494619,0 -0.958577,-0.2228 -1.391875,-0.6684 -0.08176,-0.082 -0.192125,-0.2677 -0.331107,-0.5579 -0.134896,-0.2903 -0.202344,-0.4865 -0.202344,-0.5887 0,-0.1839 0.04905,-0.3331 0.147159,-0.4476 0.06949,-0.045 0.161465,-0.1247 0.275923,-0.2391 0.04088,-0.07 0.08175,-0.139 0.122632,-0.2085 0.03679,-0.041 0.116499,-0.061 0.239133,-0.061 0.08584,0 0.155332,0.023 0.208474,0.067 0.08584,0.069 0.14307,0.1104 0.171685,0.1227 0.06132,0.01 0.155333,0.02 0.282054,0.037 0.179859,0.053 0.447606,0.1308 0.803241,0.233 -2e-6,-0.037 -0.0082,-0.09 -0.02453,-0.1595 -0.01635,-0.069 -0.02453,-0.1226 -0.02453,-0.1594 -2e-6,-0.086 0.04087,-0.1901 0.122633,-0.3127 0.08175,-0.1267 0.161462,-0.2085 0.239132,-0.2453 0.106278,-0.012 0.259569,-0.035 0.459871,-0.067 0.290226,-0.078 0.727614,-0.188 1.312165,-0.3311 0.232996,-0.065 0.584541,-0.1492 1.054637,-0.2514 0.40468,-0.069 0.870681,-0.1042 1.398007,-0.1042 0.8747681,0 1.7658945,0.2432 2.6733818,0.7296 0.044955,0.041 0.1164905,0.1002 0.2146064,0.1778 0.5763606,0.4293 0.9074672,0.9566 0.9933208,1.582 0.3147445,0.1594 0.5089119,0.2391 0.5825029,0.2391 -0.040889,0 0.1185326,-0.041 0.4782656,-0.1226 0.036777,0.029 0.055172,0.065 0.055185,0.1104 -1.23e-5,0.1716 -0.069504,0.3209 -0.2084748,0.4476 -0.1349073,0.1226 -0.2922851,0.1839 -0.4721339,0.1839 -0.065415,0 -0.1594333,-0.022 -0.2820541,-0.067 -0.1185556,-0.049 -0.2084858,-0.074 -0.2697908,-0.074 -0.02045,0 -0.036801,0.023 -0.049053,0.067 -0.012274,0.045 -0.032713,0.1145 -0.061316,0.2085 -0.024537,0.09 -0.094029,0.2575 -0.2084747,0.5028 l 0,0.061 c 0.012252,0.029 0.032691,0.043 0.061316,0.043 0.01634,0 0.071525,-0.035 0.1655534,-0.1042 0.094007,-0.074 0.1737179,-0.1104 0.2391328,-0.1104 -0.040888,0 0.030647,0.037 0.2146064,0.1104 0.1430593,0.045 0.2840862,0.088 0.4230811,0.1288 0.2043749,0.078 0.3065683,0.1614 0.3065805,0.2514 -1.22e-5,0.024 -0.022495,0.086 -0.067448,0.1839 -0.040889,0.094 -0.061328,0.1799 -0.061316,0.2575 -1.2e-5,0.1022 0.044953,0.2371 0.1348955,0.4047 0.089918,0.1717 0.1348831,0.3148 0.1348954,0.4292 m -1.5574289,-3.5747 c -0.2411872,-0.5069 -0.4844075,-0.8196 -0.7296616,-0.9381 0.061306,0.2044 0.1226221,0.4067 0.1839483,0.607 0.061306,0.1104 0.2432101,0.2207 0.5457133,0.3311 m 1.3366909,0.7113 c -0.1389951,0.078 -0.2432323,0.1165 -0.3127121,0.1165 -0.032714,0 -0.2350565,-0.047 -0.6070294,-0.141 -0.012274,0.057 -0.036801,0.143 -0.073579,0.2575 0.2289022,0.082 0.4148941,0.1226 0.5579765,0.1226 0.089919,0 0.1818926,-0.037 0.2759225,-0.1104 0.098094,-0.078 0.1512343,-0.1594 0.1594218,-0.2452 m -2.0540893,-1.0608 c -0.044975,-0.1676 -0.1267298,-0.4006 -0.2452644,-0.699 -0.3311164,-0.1676 -0.6847055,-0.3311 -1.0607685,-0.4905 l 0,0.1533 c -8.7e-6,0.1185 0.018386,0.2411 0.055184,0.3679 0.2779573,0.1512 0.6949063,0.374 1.2508484,0.6683 m 0.8890834,0.6561 c -0.2207486,-0.1186 -0.4496618,-0.231 -0.6867403,-0.3372 l -0.2943172,0.8461 0.030658,0.055 0.8032409,0.2391 c 0.00816,-0.024 0.057218,-0.2922 0.1471586,-0.8032 m -0.8584253,-0.4783 -1.2140588,-0.6254 c 0.012254,0.1267 0.024518,0.2534 0.03679,0.3802 0.012254,0.1512 0.049044,0.2698 0.1103689,0.3556 0.077658,0.1104 0.2125533,0.235 0.4046863,0.374 0.2820444,0.1962 0.4353345,0.3046 0.4598707,0.325 l 0.2023432,-0.8094 m -1.4409284,-0.8952 0,-0.515 c -0.535502,-0.098 -0.7909855,-0.1472 -0.7664512,-0.1472 l -0.2391328,0 c 0.012256,0.1349 0.010212,0.2596 -0.00613,0.374 l 1.0117137,0.2882 m 0.1716851,0.84 c -8.8e-6,-0.069 -0.040886,-0.28 -0.1226322,-0.6315 -0.3311152,-0.1267 -0.6785728,-0.2412 -1.0423737,-0.3434 0.00817,0.2412 0.063352,0.5805 0.1655535,1.0179 0.053133,0.1022 0.1451068,0.2064 0.2759224,0.3127 0.2043788,0.1635 0.3147476,0.2534 0.331107,0.2698 0.2616067,-0.417 0.3924142,-0.6255 0.392423,-0.6255 m -1.3182938,-1.1404 0,-0.3373 c -0.269798,-0.01 -0.412869,-0.012 -0.429213,-0.012 l -0.312712,0 c 0.04496,0 -0.03271,0 -0.233001,0.012 -0.02862,0.1186 -0.05315,0.231 -0.07358,0.3373 l 1.048505,0 m 2.3238778,2.2073 c -9.7e-6,-0.033 -0.3086338,-0.3086 -0.9258731,-0.8277 -0.228922,0.3188 -0.3433786,0.4782 -0.3433701,0.4782 l 0.1226322,1.0547 0.7357932,0 c 0.2738689,-0.4415 0.4108081,-0.6765 0.4108178,-0.7052 m 0.9074783,0.4722 c -0.5273286,-0.1962 -0.8114263,-0.2943 -0.8522938,-0.2943 l -0.392423,0.5825 0.2943173,0.9013 c 0.4046761,-0.1553 0.7214756,-0.5518 0.9503995,-1.1895 m 1.2937697,2.422 0,-0.2208 c -1.2e-5,-0.01 -0.053153,-0.094 -0.1594219,-0.2575 -0.1062929,-0.1635 -0.1594335,-0.3168 -0.1594218,-0.4599 -1.17e-5,-0.037 0.022471,-0.1962 0.067448,-0.4782 -0.05724,-0.053 -0.1533018,-0.092 -0.2881857,-0.1165 -0.1349067,-0.029 -0.222793,-0.063 -0.2636592,-0.1043 -0.1022046,0.1431 -0.2616263,0.2146 -0.4782656,0.2146 -0.016362,0 -0.042932,0 -0.079711,-0.012 -0.032712,-0.01 -0.057239,-0.012 -0.073579,-0.012 -0.020449,0 -0.1451252,0.096 -0.3740282,0.2882 -0.2698008,0.2207 -0.4087838,0.3352 -0.4169495,0.3434 0.1185346,0.057 0.2145964,0.086 0.2881857,0.086 0.1553239,0 0.3065701,-0.047 0.4537391,-0.141 0.1512357,-0.098 0.2595607,-0.1472 0.3249753,-0.1472 l 0.012263,0.012 c -0.032713,0.1022 -0.091985,0.2514 -0.1778167,0.4476 -0.1716955,0.2984 -0.257538,0.4762 -0.2575276,0.5334 -1.04e-5,0.033 0.00408,0.078 0.012263,0.1349 0.012253,0.061 0.018384,0.1063 0.018395,0.1349 l 0.085843,0.025 c 0.057218,-0.061 0.1491919,-0.1472 0.2759225,-0.2576 0.01634,0.086 0.05313,0.2126 0.1103689,0.3802 0.05313,-0.094 0.1430599,-0.1983 0.2697909,-0.3127 0.024515,0.065 0.075612,0.1533 0.1532902,0.2636 0.134884,-0.2166 0.2983934,-0.3249 0.4905288,-0.3249 0.012251,0 0.030646,0 0.055184,0.01 0.028602,0 0.049041,0.01 0.061316,0.01 0.03269,0 0.049041,-0.01 0.049053,-0.031 m -4.353443,-3.8568 -0.196209,-1.1037 -1.048506,0 c 0.08584,0.4292 0.16146,0.7828 0.22687,1.0608 0.183941,0.1103 0.392416,0.2411 0.625424,0.3924 0.08583,-0.078 0.216643,-0.1942 0.392421,-0.3495 m -1.269241,-1.582 c -0.310674,0.049 -0.633606,0.1124 -0.968794,0.1901 -0.01636,0.069 -0.04293,0.1717 -0.07971,0.3066 l 0.950399,-0.098 c 0.02861,-0.1717 0.06131,-0.3046 0.09811,-0.3986 m 2.1154031,2.7163 c -8.5e-6,-0.2371 -0.073588,-0.4312 -0.2207379,-0.5825 -0.1553423,-0.139 -0.3127201,-0.2779 -0.472134,-0.4169 l -0.5089212,0.466 0,1.1588 0.5947637,0.3373 c 0.1307997,-0.098 0.3290549,-0.2432 0.5947662,-0.4354 -0.0041,-0.045 -0.00614,-0.082 -0.00613,-0.1103 -8.5e-6,-0.045 0.00204,-0.1145 0.00613,-0.2085 0.00817,-0.094 0.012255,-0.1635 0.012263,-0.2085 m 1.0669001,1.5145 c -9.5e-6,-0.033 -0.08994,-0.2963 -0.2697908,-0.7909 l -0.72353,0 c -0.036798,0 -0.2452727,0.1226 -0.6254242,0.3679 -0.00818,0.049 -0.018403,0.1226 -0.030658,0.2207 -0.00818,0.1267 -0.012271,0.3311 -0.012263,0.6132 -7.9e-6,0.033 0.00612,0.055 0.018395,0.067 l 0.2636592,0 c 0.065396,0 0.275914,-0.039 0.6315558,-0.1165 0.3556243,-0.078 0.5538795,-0.1288 0.5947662,-0.1533 0.102184,-0.065 0.1532807,-0.1349 0.1532902,-0.2085 m -3.1087244,-2.6304 -0.147158,-1.0547 -0.220738,0 c -0.212569,0 -0.463964,0.043 -0.754188,0.1288 0.04496,0.2289 0.118539,0.5743 0.220738,1.0362 0.351539,0.1963 0.535487,0.2944 0.551844,0.2944 0.04905,0 0.120583,-0.055 0.214607,-0.1656 0.0981,-0.1104 0.143064,-0.1901 0.134895,-0.2391 m 0.717399,1.7413 0,-1.2815 c -0.314763,-0.2289 -0.478273,-0.3433 -0.490529,-0.3433 -0.05724,0 -0.151253,0.063 -0.282054,0.1901 -0.130814,0.1226 -0.206437,0.2146 -0.22687,0.2759 -0.04088,0.1226 -0.05928,0.2902 -0.05518,0.5028 0.0041,0.282 0.0041,0.4517 0,0.5089 0.363802,0.2289 0.560013,0.3434 0.588634,0.3434 0.02043,0 0.09605,-0.031 0.22687,-0.092 0.134888,-0.061 0.214599,-0.096 0.239133,-0.1043 m -1.955984,-3.1025 c -0.114462,0.02 -0.480314,0.1022 -1.097558,0.2452 -0.102198,0.1308 -0.206435,0.327 -0.312712,0.5887 0.384243,-0.1186 0.823675,-0.2862 1.318296,-0.5028 0.04496,-0.041 0.07562,-0.1513 0.09197,-0.3311 m 0.208475,1.4961 -0.196212,-1.0669 -1.404138,0.5334 0.68674,0.8523 0.91361,-0.3188 m 2.3177463,2.9677 0,-0.9198 c -7.7e-6,-0.024 -0.089938,-0.084 -0.2697893,-0.1778 -0.17578,-0.094 -0.284105,-0.141 -0.324975,-0.141 -0.04906,0 -0.198262,0.065 -0.447607,0.1962 -0.09403,0.3434 -0.183955,0.6418 -0.269791,0.8952 0.290223,0.041 0.72761,0.09 1.3121623,0.1472 m -1.7475073,-2.33 0,-0.1717 c -0.122638,-0.078 -0.30863,-0.1901 -0.557976,-0.3373 l -0.821636,0.2392 0,0.1042 c -4e-6,0.086 0.02657,0.2126 0.07971,0.3802 0.05722,0.1635 0.110364,0.2759 0.159422,0.3372 0.04905,0.061 0.147154,0.1267 0.294317,0.1962 0.147154,0.07 0.255479,0.1043 0.324976,0.1042 0.05314,10e-5 0.130802,-0.01 0.233001,-0.024 0.106275,-0.016 0.185986,-0.024 0.239133,-0.024 0.0327,-0.3761 0.04905,-0.6438 0.04905,-0.8032 m -2.103142,-1.7966 c -0.15125,0.012 -0.380163,0.035 -0.68674,0.067 -0.04497,0.094 -0.100153,0.2351 -0.165553,0.4231 0.167594,-0.041 0.37198,-0.065 0.61316,-0.074 0.08175,-0.1553 0.161462,-0.2943 0.239133,-0.4169 m -0.06745,0.9443 c -0.02862,-0.078 -0.07767,-0.1922 -0.147159,-0.3434 -0.03271,0 -0.09198,-0.014 -0.177817,-0.031 -0.08176,-0.016 -0.145118,-0.025 -0.19008,-0.025 -0.0327,0 -0.08176,0 -0.147158,0.012 -0.06541,0.01 -0.11446,0.012 -0.147159,0.012 0.04496,0.2085 0.110366,0.4395 0.196212,0.6929 0.10219,-0.065 0.306577,-0.1717 0.613161,-0.3188 m 2.697908,2.0908 c -0.327025,-0.1798 -0.529368,-0.2697 -0.607029,-0.2698 -0.04497,10e-5 -0.112419,0.01 -0.202344,0.025 -0.08585,0.012 -0.151251,0.018 -0.196211,0.018 -0.06541,0 -0.108331,-0.012 -0.128764,-0.037 l -0.441476,0.9197 c 0.143066,0.07 0.353584,0.1227 0.631556,0.1594 0.216644,0.029 0.435338,0.057 0.656082,0.086 0.07766,-0.1063 0.138977,-0.2514 0.183949,-0.4354 0.03678,-0.1553 0.07153,-0.3106 0.104237,-0.466 m -2.219643,-1.5206 c -4e-6,0 -0.114461,-0.1635 -0.34337,-0.4905 l -0.711267,0.3617 0.202343,0.8769 c 0.568192,-0.4497 0.85229,-0.699 0.852294,-0.7481 m 0.453739,0.8891 -0.269791,-0.8094 c -0.179864,0.1513 -0.359725,0.3025 -0.539581,0.4538 -0.290233,0.2452 -0.435348,0.3903 -0.435345,0.4353 -3e-6,0.1799 0.155331,0.3618 0.466003,0.5457 l 0.778714,-0.6254 m 0.502792,0.3679 c -0.29841,-0.1472 -0.449656,-0.2208 -0.453739,-0.2208 -0.05314,0 -0.284102,0.2044 -0.692872,0.6132 0.314752,0.327 0.513007,0.4905 0.594766,0.4905 0.03679,0 0.06744,0 0.09197,-0.012 0.102188,-0.1676 0.255478,-0.4579 0.45987,-0.8707 m -1.94372,-0.055 -0.38016,-1.6187 c -0.151249,-0.065 -0.38425,-0.1513 -0.699003,-0.2576 -0.151249,-0.033 -0.37403,-0.094 -0.668346,-0.1839 -0.02862,-0.012 -0.0838,-0.053 -0.165553,-0.1227 -0.05723,-0.045 -0.124678,-0.065 -0.202343,-0.061 -0.02862,0.049 -0.07358,0.1227 -0.134896,0.2208 -0.2003,0.2452 -0.30045,0.3903 -0.300449,0.4353 -1e-6,-0.053 0.03679,0.059 0.110369,0.3372 0.0082,0.057 0.02861,0.139 0.06132,0.2453 0.110368,0.2248 0.228913,0.3904 0.355634,0.4967 0.41286,0.3433 0.817546,0.515 1.214058,0.515 0.05314,0 0.128762,-0.01 0.22687,-0.024 0.102191,-0.02 0.179858,-0.031 0.233001,-0.031 0.110366,0 0.226867,0.016 0.349502,0.049 m 1.10369,1.0117 c -0.04906,-0.02 -0.17169,-0.1165 -0.367897,-0.2882 -0.18804,-0.1594 -0.288189,-0.2391 -0.300449,-0.2391 -0.106285,0 -0.208478,0.1799 -0.30658,0.5396 -0.05314,0.2371 -0.104241,0.4721 -0.15329,0.7051 -0.106285,0 -0.261619,0.018 -0.466003,0.055 -0.175775,0.061 -0.296363,0.2166 -0.361765,0.466 0.0327,-0.012 0.147156,-0.043 0.34337,-0.092 l 0.01226,0.031 0,0.025 c -0.06132,0.078 -0.128767,0.1778 -0.202344,0.3005 0.07766,-0.041 0.157376,-0.088 0.239133,-0.1411 l 0.03679,0.037 c -0.0327,0.2085 -0.04906,0.2964 -0.04905,0.2637 -3e-6,0.024 0.002,0.043 0.0061,0.055 0.02044,-0.01 0.08993,-0.065 0.208474,-0.1717 0.06949,-0.061 0.161463,-0.092 0.275923,-0.092 0.05723,0 0.134892,0.01 0.233001,0.031 0.114453,0.024 0.190076,0.039 0.22687,0.043 0.04496,-0.2003 0.08993,-0.4027 0.134895,-0.607 0.04496,-0.1758 0.147155,-0.3659 0.30658,-0.5703 0.126716,-0.1594 0.188032,-0.2759 0.183949,-0.3495 m -2.005037,-1.9192 c -2e-6,0.07 -0.04497,0.1594 -0.134895,0.2698 -0.08993,0.1104 -0.1676,0.1656 -0.233001,0.1656 -0.138985,0 -0.25753,-0.041 -0.355634,-0.1227 -0.11037,-0.086 -0.165555,-0.1962 -0.165553,-0.3311 -2e-6,-0.1471 0.0511,-0.2677 0.15329,-0.3617 0.10628,-0.094 0.235043,-0.1411 0.386292,-0.1411 0.232998,0 0.349499,0.1738 0.349501,0.5212 m -0.45987,-0.074 0,-0.08 c 0.0041,-0.029 -0.03066,-0.072 -0.104238,-0.1287 -0.02453,0.016 -0.05927,0.043 -0.104237,0.08 0.0082,0.037 0.02453,0.088 0.04905,0.1533 0.03679,-0.01 0.08993,-0.016 0.159422,-0.025 m 0.361765,0.037 c -0.03679,-0.01 -0.08993,-0.018 -0.159422,-0.031 -0.05723,0.1144 -0.122635,0.1941 -0.196212,0.2391 -2e-6,0.069 0.01839,0.1329 0.05518,0.1901 0.106279,-0.053 0.206428,-0.186 0.300449,-0.3986"
         id="path3144"
         style="font-size:12.55753708px;font-style:normal;font-variant:normal;font-weight:normal;font-stretch:normal;text-align:start;line-height:100%;letter-spacing:0px;word-spacing:0px;writing-mode:lr-tb;text-anchor:start;fill:#dfdbd3;fill-opacity:1;stroke:none;font-family:Ubuntu;-inkscape-font-specification:Ubuntu" />
    </g>
  </g>
</svg>
