<?xml version="1.0" encoding="UTF-8" standalone="no"?>
<!-- Created with Inkscape (http://www.inkscape.org/) -->

<svg
   xmlns:dc="http://purl.org/dc/elements/1.1/"
   xmlns:cc="http://creativecommons.org/ns#"
   xmlns:rdf="http://www.w3.org/1999/02/22-rdf-syntax-ns#"
   xmlns:svg="http://www.w3.org/2000/svg"
   xmlns="http://www.w3.org/2000/svg"
   xmlns:sodipodi="http://sodipodi.sourceforge.net/DTD/sodipodi-0.dtd"
   xmlns:inkscape="http://www.inkscape.org/namespaces/inkscape"
   width="22"
   height="22"
   id="svg4628"
   version="1.1"
   inkscape:version="0.48.4 r9939"
   sodipodi:docname="New document 10">
  <defs
     id="defs4630" />
  <sodipodi:namedview
     id="base"
     pagecolor="#ffffff"
     bordercolor="#666666"
     borderopacity="1.0"
     inkscape:pageopacity="0.0"
     inkscape:pageshadow="2"
     inkscape:zoom="10.727273"
     inkscape:cx="11"
     inkscape:cy="11"
     inkscape:document-units="px"
     inkscape:current-layer="layer1"
     showgrid="false"
     inkscape:showpageshadow="false"
     showborder="true"
     inkscape:window-width="639"
     inkscape:window-height="383"
     inkscape:window-x="1039"
     inkscape:window-y="491"
     inkscape:window-maximized="0" />
  <metadata
     id="metadata4633">
    <rdf:RDF>
      <cc:Work
         rdf:about="">
        <dc:format>image/svg+xml</dc:format>
        <dc:type
           rdf:resource="http://purl.org/dc/dcmitype/StillImage" />
        <dc:title></dc:title>
      </cc:Work>
    </rdf:RDF>
  </metadata>
  <g
     inkscape:label="Layer 1"
     inkscape:groupmode="layer"
     id="layer1"
     transform="translate(0,-1030.3622)">
    <g
       transform="translate(-22.05548,-22.1596)"
       id="g3096">
      <path
         inkscape:connector-curvature="0"
         d="m 27.623425,1063.8796 0,-0.3125 0.28125,-0.039 -0.5,-1.7031 0.78125,0 1.140625,1.5703 c 0.760413,-0.068 1.885412,-0.1276 3.375,-0.1797 -0.276048,-1.4375 -0.85938,-3.099 -1.75,-4.9844 l 0.960937,0 0.898438,1.1719 1.15625,0 0,0.625 -0.671875,0 0.78125,1.0156 1.203125,0 0,0.625 -0.726563,0 1.1875,1.5469 2.0625,0 c 0.364572,0 0.671863,0.068 0.921875,0.2031 0.166655,0.089 0.249988,0.1901 0.25,0.3047 -1.2e-5,0.1146 -0.08335,0.2161 -0.25,0.3047 -0.250012,0.1354 -0.557303,0.2031 -0.921875,0.2031 l -2.0625,0 -1.1875,1.5469 0.726563,0 0,0.625 -1.203125,0 -0.78125,1.0156 0.671875,0 0,0.625 -1.15625,0 -0.898438,1.1719 -0.960937,0 c 0.89062,-1.8334 1.473952,-3.4948 1.75,-4.9844 -1.489588,-0.057 -2.614587,-0.1172 -3.375,-0.1797 l -1.140625,1.5703 -0.78125,0 0.5,-1.7031 -0.28125,-0.039"
         id="path3150-9"
         style="font-size:16px;font-style:normal;font-variant:normal;font-weight:normal;font-stretch:normal;text-align:start;line-height:100%;letter-spacing:0px;word-spacing:0px;writing-mode:lr-tb;text-anchor:start;fill:#000000;fill-opacity:0.36529685;stroke:none;font-family:Ubuntu;-inkscape-font-specification:Ubuntu" />
      <path
         inkscape:connector-curvature="0"
         d="m 27.354723,1063.4764 0,-0.3125 0.28125,-0.039 -0.5,-1.7031 0.78125,0 1.140625,1.5703 c 0.760413,-0.068 1.885412,-0.1276 3.375,-0.1797 -0.276048,-1.4375 -0.85938,-3.099 -1.75,-4.9844 l 0.960937,0 0.898438,1.1719 1.15625,0 0,0.625 -0.671875,0 0.78125,1.0156 1.203125,0 0,0.625 -0.726563,0 1.1875,1.5469 2.0625,0 c 0.364572,0 0.671863,0.068 0.921875,0.2031 0.166655,0.089 0.249988,0.1901 0.25,0.3047 -1.2e-5,0.1146 -0.08335,0.2161 -0.25,0.3047 -0.250012,0.1354 -0.557303,0.2031 -0.921875,0.2031 l -2.0625,0 -1.1875,1.5469 0.726563,0 0,0.625 -1.203125,0 -0.78125,1.0156 0.671875,0 0,0.625 -1.15625,0 -0.898438,1.1719 -0.960937,0 c 0.89062,-1.8334 1.473952,-3.4948 1.75,-4.9844 -1.489588,-0.057 -2.614587,-0.1172 -3.375,-0.1797 l -1.140625,1.5703 -0.78125,0 0.5,-1.7031 -0.28125,-0.039"
         id="path3150"
         style="font-size:16px;font-style:normal;font-variant:normal;font-weight:normal;font-stretch:normal;text-align:start;line-height:100%;letter-spacing:0px;word-spacing:0px;writing-mode:lr-tb;text-anchor:start;fill:#dfdbd3;fill-opacity:1;stroke:none;font-family:Ubuntu;-inkscape-font-specification:Ubuntu" />
    </g>
  </g>
</svg>
