<?xml version="1.0" encoding="UTF-8" standalone="no"?>
<!-- Created with Inkscape (http://www.inkscape.org/) -->

<svg
   xmlns:dc="http://purl.org/dc/elements/1.1/"
   xmlns:cc="http://creativecommons.org/ns#"
   xmlns:rdf="http://www.w3.org/1999/02/22-rdf-syntax-ns#"
   xmlns:svg="http://www.w3.org/2000/svg"
   xmlns="http://www.w3.org/2000/svg"
   xmlns:sodipodi="http://sodipodi.sourceforge.net/DTD/sodipodi-0.dtd"
   xmlns:inkscape="http://www.inkscape.org/namespaces/inkscape"
   width="22"
   height="22"
   id="svg4628"
   version="1.1"
   inkscape:version="0.48.4 r9939"
   sodipodi:docname="New document 4">
  <defs
     id="defs4630" />
  <sodipodi:namedview
     id="base"
     pagecolor="#ffffff"
     bordercolor="#666666"
     borderopacity="1.0"
     inkscape:pageopacity="0.0"
     inkscape:pageshadow="2"
     inkscape:zoom="10.727273"
     inkscape:cx="11"
     inkscape:cy="11"
     inkscape:document-units="px"
     inkscape:current-layer="layer1"
     showgrid="false"
     inkscape:showpageshadow="false"
     showborder="true"
     inkscape:window-width="639"
     inkscape:window-height="383"
     inkscape:window-x="1039"
     inkscape:window-y="615"
     inkscape:window-maximized="0" />
  <metadata
     id="metadata4633">
    <rdf:RDF>
      <cc:Work
         rdf:about="">
        <dc:format>image/svg+xml</dc:format>
        <dc:type
           rdf:resource="http://purl.org/dc/dcmitype/StillImage" />
        <dc:title></dc:title>
      </cc:Work>
    </rdf:RDF>
  </metadata>
  <g
     inkscape:label="Layer 1"
     inkscape:groupmode="layer"
     id="layer1"
     transform="translate(0,-1030.3622)">
    <g
       transform="translate(-22.125112,21.6686)"
       id="g3070">
      <path
         inkscape:connector-curvature="0"
         d="m 28.633691,1023.1204 0,-6.4504 4.142046,0 0,0.996 -2.969242,0 0,1.5916 2.643463,0 0,0.9774 -2.643463,0 0,1.8895 3.192633,0 0,0.9959 -4.365437,0"
         style="font-size:9.30796719px;font-style:normal;font-variant:normal;font-weight:500;font-stretch:normal;text-align:start;line-height:100%;letter-spacing:0px;word-spacing:0px;writing-mode:lr-tb;text-anchor:start;fill:#000000;fill-opacity:0.36529685;stroke:none;font-family:Ubuntu;-inkscape-font-specification:Ubuntu Medium"
         id="path3136-5" />
      <path
         inkscape:connector-curvature="0"
         d="m 35.074229,1023.1204 c -0.310267,-0.6391 -0.62984,-1.3713 -0.95872,-2.1967 -0.322677,-0.8315 -0.617429,-1.7219 -0.884257,-2.6713 l 1.200727,0 c 0.06826,0.273 0.145824,0.5677 0.2327,0.8842 0.09308,0.3103 0.18926,0.6237 0.288547,0.9401 0.105488,0.3103 0.210978,0.6143 0.31647,0.9122 0.111694,0.2917 0.214081,0.5554 0.307163,0.7912 0.09308,-0.2358 0.192362,-0.4995 0.297855,-0.7912 0.105488,-0.2979 0.207875,-0.6019 0.307163,-0.9122 0.105487,-0.3164 0.204772,-0.6298 0.297855,-0.9401 0.09308,-0.3165 0.173745,-0.6112 0.242007,-0.8842 l 1.163496,0 c -0.266833,0.9494 -0.564687,1.8398 -0.893565,2.6713 -0.322679,0.8254 -0.63915,1.5576 -0.949412,2.1967 l -0.968029,0"
         style="font-size:9.30796719px;font-style:normal;font-variant:normal;font-weight:500;font-stretch:normal;text-align:start;line-height:100%;letter-spacing:0px;word-spacing:0px;writing-mode:lr-tb;text-anchor:start;fill:#000000;fill-opacity:0.36529685;stroke:none;font-family:Ubuntu;-inkscape-font-specification:Ubuntu Medium"
         id="path3138-0" />
      <path
         inkscape:connector-curvature="0"
         d="m 28.364989,1022.7172 0,-6.4504 4.142046,0 0,0.996 -2.969242,0 0,1.5916 2.643463,0 0,0.9774 -2.643463,0 0,1.8895 3.192633,0 0,0.9959 -4.365437,0"
         style="font-size:9.30796719px;font-style:normal;font-variant:normal;font-weight:500;font-stretch:normal;text-align:start;line-height:100%;letter-spacing:0px;word-spacing:0px;writing-mode:lr-tb;text-anchor:start;fill:#dfdbd3;fill-opacity:1;stroke:none;font-family:Ubuntu;-inkscape-font-specification:Ubuntu Medium"
         id="path3136" />
      <path
         inkscape:connector-curvature="0"
         d="m 34.805527,1022.7172 c -0.310267,-0.6391 -0.62984,-1.3713 -0.95872,-2.1967 -0.322677,-0.8315 -0.617429,-1.7219 -0.884257,-2.6713 l 1.200727,0 c 0.06826,0.273 0.145824,0.5677 0.2327,0.8842 0.09308,0.3103 0.18926,0.6237 0.288547,0.9401 0.105488,0.3103 0.210978,0.6143 0.31647,0.9122 0.111694,0.2917 0.214081,0.5554 0.307163,0.7912 0.09308,-0.2358 0.192362,-0.4995 0.297855,-0.7912 0.105488,-0.2979 0.207875,-0.6019 0.307163,-0.9122 0.105487,-0.3164 0.204772,-0.6298 0.297855,-0.9401 0.09308,-0.3165 0.173745,-0.6112 0.242007,-0.8842 l 1.163496,0 c -0.266833,0.9494 -0.564687,1.8398 -0.893565,2.6713 -0.322679,0.8254 -0.63915,1.5576 -0.949412,2.1967 l -0.968029,0"
         style="font-size:9.30796719px;font-style:normal;font-variant:normal;font-weight:500;font-stretch:normal;text-align:start;line-height:100%;letter-spacing:0px;word-spacing:0px;writing-mode:lr-tb;text-anchor:start;fill:#dfdbd3;fill-opacity:1;stroke:none;font-family:Ubuntu;-inkscape-font-specification:Ubuntu Medium"
         id="path3138" />
    </g>
  </g>
</svg>
